<?xml version="1.0" encoding="UTF-8" standalone="no"?>
<!DOCTYPE svg PUBLIC "-//W3C//DTD SVG 1.1//EN"
 "http://www.w3.org/Graphics/SVG/1.1/DTD/svg11.dtd">
<!-- Generated by graphviz version 2.43.0 (0)
 -->
<!-- Title: board Pages: 1 -->
<svg width="622pt" height="226pt"
 viewBox="0.00 0.00 622.00 226.00" xmlns="http://www.w3.org/2000/svg" xmlns:xlink="http://www.w3.org/1999/xlink">
<g id="graph0" class="graph" transform="scale(1 1) rotate(0) translate(4 222)">
<title>board</title>
<polygon fill="white" stroke="transparent" points="-4,4 -4,-222 618,-222 618,4 -4,4"/>
<!-- n00000001 -->
<g id="node1" class="node">
<title>n00000001</title>
<path fill="green" stroke="black" d="M242.5,-74.5C242.5,-74.5 322.5,-74.5 322.5,-74.5 328.5,-74.5 334.5,-80.5 334.5,-86.5 334.5,-86.5 334.5,-131.5 334.5,-131.5 334.5,-137.5 328.5,-143.5 322.5,-143.5 322.5,-143.5 242.5,-143.5 242.5,-143.5 236.5,-143.5 230.5,-137.5 230.5,-131.5 230.5,-131.5 230.5,-86.5 230.5,-86.5 230.5,-80.5 236.5,-74.5 242.5,-74.5"/>
<text text-anchor="middle" x="243.5" y="-128.3" font-family="Times,serif" font-size="14.00">0</text>
<polyline fill="none" stroke="black" points="256.5,-120.5 256.5,-143.5 "/>
<text text-anchor="middle" x="269.5" y="-128.3" font-family="Times,serif" font-size="14.00">1</text>
<polyline fill="none" stroke="black" points="282.5,-120.5 282.5,-143.5 "/>
<text text-anchor="middle" x="295.5" y="-128.3" font-family="Times,serif" font-size="14.00">2</text>
<polyline fill="none" stroke="black" points="308.5,-120.5 308.5,-143.5 "/>
<text text-anchor="middle" x="321.5" y="-128.3" font-family="Times,serif" font-size="14.00">7</text>
<polyline fill="none" stroke="black" points="230.5,-120.5 334.5,-120.5 "/>
<text text-anchor="middle" x="282.5" y="-105.3" font-family="Times,serif" font-size="14.00">pispbe</text>
<polyline fill="none" stroke="black" points="230.5,-97.5 334.5,-97.5 "/>
<text text-anchor="middle" x="243.5" y="-82.3" font-family="Times,serif" font-size="14.00">3</text>
<polyline fill="none" stroke="black" points="256.5,-74.5 256.5,-97.5 "/>
<text text-anchor="middle" x="269.5" y="-82.3" font-family="Times,serif" font-size="14.00">4</text>
<polyline fill="none" stroke="black" points="282.5,-74.5 282.5,-97.5 "/>
<text text-anchor="middle" x="295.5" y="-82.3" font-family="Times,serif" font-size="14.00">5</text>
<polyline fill="none" stroke="black" points="308.5,-74.5 308.5,-97.5 "/>
<text text-anchor="middle" x="321.5" y="-82.3" font-family="Times,serif" font-size="14.00">6</text>
</g>
<!-- n0000001c -->
<g id="node2" class="node">
<title>n0000001c</title>
<polygon fill="yellow" stroke="black" points="125,-38 0,-38 0,0 125,0 125,-38"/>
<text text-anchor="middle" x="62.5" y="-22.8" font-family="Times,serif" font-size="14.00">pispbe&#45;output0</text>
<text text-anchor="middle" x="62.5" y="-7.8" font-family="Times,serif" font-size="14.00">/dev/video3</text>
</g>
<!-- n00000001&#45;&gt;n0000001c -->
<g id="edge1" class="edge">
<title>n00000001:port3&#45;&gt;n0000001c</title>
<path fill="none" stroke="black" stroke-width="2" d="M229.5,-86C181.63,-86 131.1,-62.25 98.32,-43.25"/>
<polygon fill="black" stroke="black" stroke-width="2" points="99.95,-40.14 89.57,-38.03 96.37,-46.16 99.95,-40.14"/>
</g>
<!-- n00000022 -->
<g id="node3" class="node">
<title>n00000022</title>
<polygon fill="yellow" stroke="black" points="268,-38 143,-38 143,0 268,0 268,-38"/>
<text text-anchor="middle" x="205.5" y="-22.8" font-family="Times,serif" font-size="14.00">pispbe&#45;output1</text>
<text text-anchor="middle" x="205.5" y="-7.8" font-family="Times,serif" font-size="14.00">/dev/video4</text>
</g>
<!-- n00000001&#45;&gt;n00000022 -->
<g id="edge2" class="edge">
<title>n00000001:port4&#45;&gt;n00000022</title>
<path fill="none" stroke="black" stroke-width="2" d="M269.5,-74C269.5,-61.96 262.8,-52.06 253.74,-44.17"/>
<polygon fill="black" stroke="black" stroke-width="2" points="255.74,-41.3 245.67,-38.02 251.5,-46.87 255.74,-41.3"/>
</g>
<!-- n00000028 -->
<g id="node4" class="node">
<title>n00000028</title>
<polygon fill="yellow" stroke="black" points="432.5,-38 286.5,-38 286.5,0 432.5,0 432.5,-38"/>
<text text-anchor="middle" x="359.5" y="-22.8" font-family="Times,serif" font-size="14.00">pispbe&#45;tdn_output</text>
<text text-anchor="middle" x="359.5" y="-7.8" font-family="Times,serif" font-size="14.00">/dev/video5</text>
</g>
<!-- n00000001&#45;&gt;n00000028 -->
<g id="edge3" class="edge">
<title>n00000001:port5&#45;&gt;n00000028</title>
<path fill="none" stroke="black" stroke-width="2" d="M295.5,-74C295.5,-61.96 302.2,-52.06 311.26,-44.17"/>
<polygon fill="black" stroke="black" stroke-width="2" points="313.5,-46.87 319.33,-38.02 309.26,-41.3 313.5,-46.87"/>
</g>
<!-- n0000002e -->
<g id="node5" class="node">
<title>n0000002e</title>
<polygon fill="yellow" stroke="black" points="614,-38 451,-38 451,0 614,0 614,-38"/>
<text text-anchor="middle" x="532.5" y="-22.8" font-family="Times,serif" font-size="14.00">pispbe&#45;stitch_output</text>
<text text-anchor="middle" x="532.5" y="-7.8" font-family="Times,serif" font-size="14.00">/dev/video6</text>
</g>
<!-- n00000001&#45;&gt;n0000002e -->
<g id="edge4" class="edge">
<title>n00000001:port6&#45;&gt;n0000002e</title>
<path fill="none" stroke="black" stroke-width="2" d="M335.5,-86C391.6,-86 452.25,-61.64 491.21,-42.52"/>
<polygon fill="black" stroke="black" stroke-width="2" points="492.78,-45.65 500.15,-38.03 489.64,-39.39 492.78,-45.65"/>
</g>
<!-- n0000000a -->
<g id="node6" class="node">
<title>n0000000a</title>
<polygon fill="yellow" stroke="black" points="114.5,-218 8.5,-218 8.5,-180 114.5,-180 114.5,-218"/>
<text text-anchor="middle" x="61.5" y="-202.8" font-family="Times,serif" font-size="14.00">pispbe&#45;input</text>
<text text-anchor="middle" x="61.5" y="-187.8" font-family="Times,serif" font-size="14.00">/dev/video0</text>
</g>
<!-- n0000000a&#45;&gt;n00000001 -->
<g id="edge5" class="edge">
<title>n0000000a&#45;&gt;n00000001:port0</title>
<path fill="none" stroke="black" stroke-width="2" d="M88.74,-179.97C118.88,-161.68 169.75,-135.63 219.29,-132.34"/>
<polygon fill="black" stroke="black" stroke-width="2" points="219.62,-135.83 229.5,-132 219.39,-128.84 219.62,-135.83"/>
</g>
<!-- n00000010 -->
<g id="node7" class="node">
<title>n00000010</title>
<polygon fill="yellow" stroke="black" points="270,-218 133,-218 133,-180 270,-180 270,-218"/>
<text text-anchor="middle" x="201.5" y="-202.8" font-family="Times,serif" font-size="14.00">pispbe&#45;tdn_input</text>
<text text-anchor="middle" x="201.5" y="-187.8" font-family="Times,serif" font-size="14.00">/dev/video1</text>
</g>
<!-- n00000010&#45;&gt;n00000001 -->
<g id="edge6" class="edge">
<title>n00000010&#45;&gt;n00000001:port1</title>
<path fill="none" stroke="black" stroke-width="2" d="M245.33,-179.83C255.51,-173.23 264.4,-164.7 267.91,-153.98"/>
<polygon fill="black" stroke="black" stroke-width="2" points="271.38,-154.43 269.5,-144 264.47,-153.32 271.38,-154.43"/>
</g>
<!-- n00000016 -->
<g id="node8" class="node">
<title>n00000016</title>
<polygon fill="yellow" stroke="black" points="441,-218 288,-218 288,-180 441,-180 441,-218"/>
<text text-anchor="middle" x="364.5" y="-202.8" font-family="Times,serif" font-size="14.00">pispbe&#45;stitch_input</text>
<text text-anchor="middle" x="364.5" y="-187.8" font-family="Times,serif" font-size="14.00">/dev/video2</text>
</g>
<!-- n00000016&#45;&gt;n00000001 -->
<g id="edge7" class="edge">
<title>n00000016&#45;&gt;n00000001:port2</title>
<path fill="none" stroke="black" stroke-width="2" d="M320.02,-179.98C309.69,-173.4 300.67,-164.85 297.12,-154.06"/>
<polygon fill="black" stroke="black" stroke-width="2" points="300.54,-153.32 295.5,-144 293.63,-154.43 300.54,-153.32"/>
</g>
<!-- n00000034 -->
<g id="node9" class="node">
<title>n00000034</title>
<polygon fill="yellow" stroke="black" points="570,-218 459,-218 459,-180 570,-180 570,-218"/>
<text text-anchor="middle" x="514.5" y="-202.8" font-family="Times,serif" font-size="14.00">pispbe&#45;config</text>
<text text-anchor="middle" x="514.5" y="-187.8" font-family="Times,serif" font-size="14.00">/dev/video7</text>
</g>
<!-- n00000034&#45;&gt;n00000001 -->
<g id="edge8" class="edge">
<title>n00000034&#45;&gt;n00000001:port7</title>
<path fill="none" stroke="black" stroke-width="2" d="M485.31,-179.97C452.93,-161.61 398.28,-135.41 345.65,-132.3"/>
<polygon fill="black" stroke="black" stroke-width="2" points="345.6,-128.8 335.5,-132 345.39,-135.8 345.6,-128.8"/>
</g>
</g>
</svg>
