<?xml version="1.0" encoding="UTF-8" standalone="no"?>
<!DOCTYPE svg PUBLIC "-//W3C//DTD SVG 1.1//EN"
 "http://www.w3.org/Graphics/SVG/1.1/DTD/svg11.dtd">
<!-- Generated by graphviz version 2.43.0 (0)
 -->
<!-- Title: board Pages: 1 -->
<svg width="572pt" height="651pt"
 viewBox="0.00 0.00 571.50 651.00" xmlns="http://www.w3.org/2000/svg" xmlns:xlink="http://www.w3.org/1999/xlink">
<g id="graph0" class="graph" transform="scale(1 1) rotate(0) translate(4 647)">
<title>board</title>
<polygon fill="white" stroke="transparent" points="-4,4 -4,-647 567.5,-647 567.5,4 -4,4"/>
<!-- n00000001 -->
<g id="node1" class="node">
<title>n00000001</title>
<path fill="green" stroke="black" d="M206.5,-195.5C206.5,-195.5 319.5,-195.5 319.5,-195.5 325.5,-195.5 331.5,-201.5 331.5,-207.5 331.5,-207.5 331.5,-267.5 331.5,-267.5 331.5,-273.5 325.5,-279.5 319.5,-279.5 319.5,-279.5 206.5,-279.5 206.5,-279.5 200.5,-279.5 194.5,-273.5 194.5,-267.5 194.5,-267.5 194.5,-207.5 194.5,-207.5 194.5,-201.5 200.5,-195.5 206.5,-195.5"/>
<text text-anchor="middle" x="228.5" y="-264.3" font-family="Times,serif" font-size="14.00">0</text>
<polyline fill="none" stroke="black" points="262.5,-256.5 262.5,-279.5 "/>
<text text-anchor="middle" x="297" y="-264.3" font-family="Times,serif" font-size="14.00">1</text>
<polyline fill="none" stroke="black" points="194.5,-256.5 331.5,-256.5 "/>
<text text-anchor="middle" x="263" y="-241.3" font-family="Times,serif" font-size="14.00">c3&#45;isp&#45;core</text>
<text text-anchor="middle" x="263" y="-226.3" font-family="Times,serif" font-size="14.00">/dev/v4l&#45;subdev0</text>
<polyline fill="none" stroke="black" points="194.5,-218.5 331.5,-218.5 "/>
<text text-anchor="middle" x="211.5" y="-203.3" font-family="Times,serif" font-size="14.00">2</text>
<polyline fill="none" stroke="black" points="228.5,-195.5 228.5,-218.5 "/>
<text text-anchor="middle" x="245.5" y="-203.3" font-family="Times,serif" font-size="14.00">3</text>
<polyline fill="none" stroke="black" points="262.5,-195.5 262.5,-218.5 "/>
<text text-anchor="middle" x="279.5" y="-203.3" font-family="Times,serif" font-size="14.00">4</text>
<polyline fill="none" stroke="black" points="296.5,-195.5 296.5,-218.5 "/>
<text text-anchor="middle" x="314" y="-203.3" font-family="Times,serif" font-size="14.00">5</text>
</g>
<!-- n00000008 -->
<g id="node2" class="node">
<title>n00000008</title>
<path fill="green" stroke="black" d="M128.5,-74.5C128.5,-74.5 241.5,-74.5 241.5,-74.5 247.5,-74.5 253.5,-80.5 253.5,-86.5 253.5,-86.5 253.5,-146.5 253.5,-146.5 253.5,-152.5 247.5,-158.5 241.5,-158.5 241.5,-158.5 128.5,-158.5 128.5,-158.5 122.5,-158.5 116.5,-152.5 116.5,-146.5 116.5,-146.5 116.5,-86.5 116.5,-86.5 116.5,-80.5 122.5,-74.5 128.5,-74.5"/>
<text text-anchor="middle" x="185" y="-143.3" font-family="Times,serif" font-size="14.00">0</text>
<polyline fill="none" stroke="black" points="116.5,-135.5 253.5,-135.5 "/>
<text text-anchor="middle" x="185" y="-120.3" font-family="Times,serif" font-size="14.00">c3&#45;isp&#45;resizer0</text>
<text text-anchor="middle" x="185" y="-105.3" font-family="Times,serif" font-size="14.00">/dev/v4l&#45;subdev1</text>
<polyline fill="none" stroke="black" points="116.5,-97.5 253.5,-97.5 "/>
<text text-anchor="middle" x="185" y="-82.3" font-family="Times,serif" font-size="14.00">1</text>
</g>
<!-- n00000001&#45;&gt;n00000008 -->
<g id="edge1" class="edge">
<title>n00000001:port3&#45;&gt;n00000008:port0</title>
<path fill="none" stroke="black" d="M245,-195C245,-180.34 259.59,-163.66 262.16,-154.48"/>
<polygon fill="black" stroke="black" points="264.6,-151.98 255,-147.5 259.71,-156.99 264.6,-151.98"/>
</g>
<!-- n0000000b -->
<g id="node3" class="node">
<title>n0000000b</title>
<path fill="green" stroke="black" d="M283.5,-74.5C283.5,-74.5 396.5,-74.5 396.5,-74.5 402.5,-74.5 408.5,-80.5 408.5,-86.5 408.5,-86.5 408.5,-146.5 408.5,-146.5 408.5,-152.5 402.5,-158.5 396.5,-158.5 396.5,-158.5 283.5,-158.5 283.5,-158.5 277.5,-158.5 271.5,-152.5 271.5,-146.5 271.5,-146.5 271.5,-86.5 271.5,-86.5 271.5,-80.5 277.5,-74.5 283.5,-74.5"/>
<text text-anchor="middle" x="340" y="-143.3" font-family="Times,serif" font-size="14.00">0</text>
<polyline fill="none" stroke="black" points="271.5,-135.5 408.5,-135.5 "/>
<text text-anchor="middle" x="340" y="-120.3" font-family="Times,serif" font-size="14.00">c3&#45;isp&#45;resizer1</text>
<text text-anchor="middle" x="340" y="-105.3" font-family="Times,serif" font-size="14.00">/dev/v4l&#45;subdev2</text>
<polyline fill="none" stroke="black" points="271.5,-97.5 408.5,-97.5 "/>
<text text-anchor="middle" x="340" y="-82.3" font-family="Times,serif" font-size="14.00">1</text>
</g>
<!-- n00000001&#45;&gt;n0000000b -->
<g id="edge2" class="edge">
<title>n00000001:port4&#45;&gt;n0000000b:port0</title>
<path fill="none" stroke="black" d="M280,-195C280,-187.84 270.83,-169.24 267.83,-157.55"/>
<polygon fill="black" stroke="black" points="271.31,-158.01 270,-147.5 264.47,-156.54 271.31,-158.01"/>
</g>
<!-- n0000000e -->
<g id="node4" class="node">
<title>n0000000e</title>
<path fill="green" stroke="black" d="M438.5,-74.5C438.5,-74.5 551.5,-74.5 551.5,-74.5 557.5,-74.5 563.5,-80.5 563.5,-86.5 563.5,-86.5 563.5,-146.5 563.5,-146.5 563.5,-152.5 557.5,-158.5 551.5,-158.5 551.5,-158.5 438.5,-158.5 438.5,-158.5 432.5,-158.5 426.5,-152.5 426.5,-146.5 426.5,-146.5 426.5,-86.5 426.5,-86.5 426.5,-80.5 432.5,-74.5 438.5,-74.5"/>
<text text-anchor="middle" x="495" y="-143.3" font-family="Times,serif" font-size="14.00">0</text>
<polyline fill="none" stroke="black" points="426.5,-135.5 563.5,-135.5 "/>
<text text-anchor="middle" x="495" y="-120.3" font-family="Times,serif" font-size="14.00">c3&#45;isp&#45;resizer2</text>
<text text-anchor="middle" x="495" y="-105.3" font-family="Times,serif" font-size="14.00">/dev/v4l&#45;subdev3</text>
<polyline fill="none" stroke="black" points="426.5,-97.5 563.5,-97.5 "/>
<text text-anchor="middle" x="495" y="-82.3" font-family="Times,serif" font-size="14.00">1</text>
</g>
<!-- n00000001&#45;&gt;n0000000e -->
<g id="edge3" class="edge">
<title>n00000001:port5&#45;&gt;n0000000e:port0</title>
<path fill="none" stroke="black" d="M333,-206.5C376.28,-206.5 386.84,-189.03 418,-159 418.81,-158.22 419.35,-157.33 419.73,-156.4"/>
<polygon fill="black" stroke="black" points="422.92,-157.89 425,-147.5 416.89,-154.32 422.92,-157.89"/>
</g>
<!-- n00000027 -->
<g id="node5" class="node">
<title>n00000027</title>
<polygon fill="yellow" stroke="black" points="98,-135.5 0,-135.5 0,-97.5 98,-97.5 98,-135.5"/>
<text text-anchor="middle" x="49" y="-120.3" font-family="Times,serif" font-size="14.00">c3&#45;isp&#45;stats</text>
<text text-anchor="middle" x="49" y="-105.3" font-family="Times,serif" font-size="14.00">/dev/video3</text>
</g>
<!-- n00000001&#45;&gt;n00000027 -->
<g id="edge4" class="edge">
<title>n00000001:port2&#45;&gt;n00000027</title>
<path fill="none" stroke="black" d="M193,-206.5C144.32,-206.5 98.34,-169.24 71.96,-142.93"/>
<polygon fill="black" stroke="black" points="74.22,-140.23 64.73,-135.51 69.2,-145.12 74.22,-140.23"/>
</g>
<!-- n00000016 -->
<g id="node6" class="node">
<title>n00000016</title>
<polygon fill="yellow" stroke="black" points="234,-38 136,-38 136,0 234,0 234,-38"/>
<text text-anchor="middle" x="185" y="-22.8" font-family="Times,serif" font-size="14.00">c3&#45;isp&#45;cap0</text>
<text text-anchor="middle" x="185" y="-7.8" font-family="Times,serif" font-size="14.00">/dev/video0</text>
</g>
<!-- n00000008&#45;&gt;n00000016 -->
<g id="edge5" class="edge">
<title>n00000008:port1&#45;&gt;n00000016</title>
<path fill="none" stroke="black" stroke-width="2" d="M185,-74C185,-65.79 185,-56.87 185,-48.69"/>
<polygon fill="black" stroke="black" stroke-width="2" points="188.5,-48.49 185,-38.49 181.5,-48.49 188.5,-48.49"/>
</g>
<!-- n0000001a -->
<g id="node7" class="node">
<title>n0000001a</title>
<polygon fill="yellow" stroke="black" points="389,-38 291,-38 291,0 389,0 389,-38"/>
<text text-anchor="middle" x="340" y="-22.8" font-family="Times,serif" font-size="14.00">c3&#45;isp&#45;cap1</text>
<text text-anchor="middle" x="340" y="-7.8" font-family="Times,serif" font-size="14.00">/dev/video1</text>
</g>
<!-- n0000000b&#45;&gt;n0000001a -->
<g id="edge6" class="edge">
<title>n0000000b:port1&#45;&gt;n0000001a</title>
<path fill="none" stroke="black" stroke-width="2" d="M340,-74C340,-65.79 340,-56.87 340,-48.69"/>
<polygon fill="black" stroke="black" stroke-width="2" points="343.5,-48.49 340,-38.49 336.5,-48.49 343.5,-48.49"/>
</g>
<!-- n00000023 -->
<g id="node8" class="node">
<title>n00000023</title>
<polygon fill="yellow" stroke="black" points="544,-38 446,-38 446,0 544,0 544,-38"/>
<text text-anchor="middle" x="495" y="-22.8" font-family="Times,serif" font-size="14.00">c3&#45;isp&#45;cap2</text>
<text text-anchor="middle" x="495" y="-7.8" font-family="Times,serif" font-size="14.00">/dev/video2</text>
</g>
<!-- n0000000e&#45;&gt;n00000023 -->
<g id="edge7" class="edge">
<title>n0000000e:port1&#45;&gt;n00000023</title>
<path fill="none" stroke="black" stroke-width="2" d="M495,-74C495,-65.79 495,-56.87 495,-48.69"/>
<polygon fill="black" stroke="black" stroke-width="2" points="498.5,-48.49 495,-38.49 491.5,-48.49 498.5,-48.49"/>
</g>
<!-- n00000011 -->
<g id="node9" class="node">
<title>n00000011</title>
<path fill="green" stroke="black" d="M133.5,-316.5C133.5,-316.5 246.5,-316.5 246.5,-316.5 252.5,-316.5 258.5,-322.5 258.5,-328.5 258.5,-328.5 258.5,-388.5 258.5,-388.5 258.5,-394.5 252.5,-400.5 246.5,-400.5 246.5,-400.5 133.5,-400.5 133.5,-400.5 127.5,-400.5 121.5,-394.5 121.5,-388.5 121.5,-388.5 121.5,-328.5 121.5,-328.5 121.5,-322.5 127.5,-316.5 133.5,-316.5"/>
<text text-anchor="middle" x="190" y="-385.3" font-family="Times,serif" font-size="14.00">0</text>
<polyline fill="none" stroke="black" points="121.5,-377.5 258.5,-377.5 "/>
<text text-anchor="middle" x="190" y="-362.3" font-family="Times,serif" font-size="14.00">c3&#45;mipi&#45;adapter</text>
<text text-anchor="middle" x="190" y="-347.3" font-family="Times,serif" font-size="14.00">/dev/v4l&#45;subdev4</text>
<polyline fill="none" stroke="black" points="121.5,-339.5 258.5,-339.5 "/>
<text text-anchor="middle" x="190" y="-324.3" font-family="Times,serif" font-size="14.00">1</text>
</g>
<!-- n00000011&#45;&gt;n00000001 -->
<g id="edge8" class="edge">
<title>n00000011:port1&#45;&gt;n00000001:port0</title>
<path fill="none" stroke="black" stroke-width="2" d="M260,-327.5C265.13,-327.5 260.99,-320.73 259,-316 252.4,-300.34 236.35,-300.25 230.33,-289.8"/>
<polygon fill="black" stroke="black" stroke-width="2" points="233.72,-288.92 228,-280 226.91,-290.54 233.72,-288.92"/>
</g>
<!-- n0000001e -->
<g id="node10" class="node">
<title>n0000001e</title>
<path fill="green" stroke="black" d="M133.5,-437.5C133.5,-437.5 246.5,-437.5 246.5,-437.5 252.5,-437.5 258.5,-443.5 258.5,-449.5 258.5,-449.5 258.5,-509.5 258.5,-509.5 258.5,-515.5 252.5,-521.5 246.5,-521.5 246.5,-521.5 133.5,-521.5 133.5,-521.5 127.5,-521.5 121.5,-515.5 121.5,-509.5 121.5,-509.5 121.5,-449.5 121.5,-449.5 121.5,-443.5 127.5,-437.5 133.5,-437.5"/>
<text text-anchor="middle" x="190" y="-506.3" font-family="Times,serif" font-size="14.00">0</text>
<polyline fill="none" stroke="black" points="121.5,-498.5 258.5,-498.5 "/>
<text text-anchor="middle" x="190" y="-483.3" font-family="Times,serif" font-size="14.00">c3&#45;mipi&#45;csi2</text>
<text text-anchor="middle" x="190" y="-468.3" font-family="Times,serif" font-size="14.00">/dev/v4l&#45;subdev5</text>
<polyline fill="none" stroke="black" points="121.5,-460.5 258.5,-460.5 "/>
<text text-anchor="middle" x="190" y="-445.3" font-family="Times,serif" font-size="14.00">1</text>
</g>
<!-- n0000001e&#45;&gt;n00000011 -->
<g id="edge9" class="edge">
<title>n0000001e:port1&#45;&gt;n00000011:port0</title>
<path fill="none" stroke="black" stroke-width="2" d="M190,-437C190,-425 190,-419.75 190,-411.12"/>
<polygon fill="black" stroke="black" stroke-width="2" points="193.5,-411 190,-401 186.5,-411 193.5,-411"/>
</g>
<!-- n0000002b -->
<g id="node11" class="node">
<title>n0000002b</title>
<polygon fill="yellow" stroke="black" points="393,-377.5 277,-377.5 277,-339.5 393,-339.5 393,-377.5"/>
<text text-anchor="middle" x="335" y="-362.3" font-family="Times,serif" font-size="14.00">c3&#45;isp&#45;params</text>
<text text-anchor="middle" x="335" y="-347.3" font-family="Times,serif" font-size="14.00">/dev/video4</text>
</g>
<!-- n0000002b&#45;&gt;n00000001 -->
<g id="edge10" class="edge">
<title>n0000002b&#45;&gt;n00000001:port1</title>
<path fill="none" stroke="black" d="M320.2,-339.3C311.16,-326.59 300.77,-308.65 297.82,-290.06"/>
<polygon fill="black" stroke="black" points="301.3,-289.68 297,-280 294.33,-290.25 301.3,-289.68"/>
</g>
<!-- n0000003f -->
<g id="node12" class="node">
<title>n0000003f</title>
<path fill="green" stroke="black" d="M133.5,-558.5C133.5,-558.5 246.5,-558.5 246.5,-558.5 252.5,-558.5 258.5,-564.5 258.5,-570.5 258.5,-570.5 258.5,-630.5 258.5,-630.5 258.5,-636.5 252.5,-642.5 246.5,-642.5 246.5,-642.5 133.5,-642.5 133.5,-642.5 127.5,-642.5 121.5,-636.5 121.5,-630.5 121.5,-630.5 121.5,-570.5 121.5,-570.5 121.5,-564.5 127.5,-558.5 133.5,-558.5"/>
<text text-anchor="middle" x="190" y="-627.3" font-family="Times,serif" font-size="14.00"> </text>
<polyline fill="none" stroke="black" points="121.5,-619.5 258.5,-619.5 "/>
<text text-anchor="middle" x="190" y="-604.3" font-family="Times,serif" font-size="14.00">imx290 2&#45;001a</text>
<text text-anchor="middle" x="190" y="-589.3" font-family="Times,serif" font-size="14.00">/dev/v4l&#45;subdev6</text>
<polyline fill="none" stroke="black" points="121.5,-581.5 258.5,-581.5 "/>
<text text-anchor="middle" x="190" y="-566.3" font-family="Times,serif" font-size="14.00">0</text>
</g>
<!-- n0000003f&#45;&gt;n0000001e -->
<g id="edge11" class="edge">
<title>n0000003f:port0&#45;&gt;n0000001e:port0</title>
<path fill="none" stroke="black" stroke-width="2" d="M190,-558C190,-546 190,-540.75 190,-532.12"/>
<polygon fill="black" stroke="black" stroke-width="2" points="193.5,-532 190,-522 186.5,-532 193.5,-532"/>
</g>
</g>
</svg>
