<?xml version="1.0" encoding="UTF-8" standalone="no"?>
<!DOCTYPE svg PUBLIC "-//W3C//DTD SVG 1.1//EN"
 "http://www.w3.org/Graphics/SVG/1.1/DTD/svg11.dtd">
<!-- Generated by graphviz version 2.43.0 (0)
 -->
<!-- Title: foo Pages: 1 -->
<svg width="276pt" height="260pt"
 viewBox="0.00 0.00 275.79 260.00" xmlns="http://www.w3.org/2000/svg" xmlns:xlink="http://www.w3.org/1999/xlink">
<g id="graph0" class="graph" transform="scale(1 1) rotate(0) translate(4 256)">
<title>foo</title>
<polygon fill="white" stroke="transparent" points="-4,4 -4,-256 271.79,-256 271.79,4 -4,4"/>
<!-- root0 -->
<g id="node1" class="node">
<title>root0</title>
<ellipse fill="none" stroke="black" cx="133.39" cy="-234" rx="36" ry="18"/>
<text text-anchor="middle" x="133.39" y="-230.3" font-family="Times,serif" font-size="14.00">root0</text>
</g>
<!-- decoder0.0 -->
<g id="node2" class="node">
<title>decoder0.0</title>
<ellipse fill="none" stroke="black" cx="133.39" cy="-162" rx="62.29" ry="18"/>
<text text-anchor="middle" x="133.39" y="-158.3" font-family="Times,serif" font-size="14.00">decoder0.0</text>
</g>
<!-- root0&#45;&gt;decoder0.0 -->
<g id="edge1" class="edge">
<title>root0&#45;&gt;decoder0.0</title>
<path fill="none" stroke="black" d="M133.39,-215.7C133.39,-207.98 133.39,-198.71 133.39,-190.11"/>
<polygon fill="black" stroke="black" points="136.89,-190.1 133.39,-180.1 129.89,-190.1 136.89,-190.1"/>
</g>
<!-- decoder1.0 -->
<g id="node3" class="node">
<title>decoder1.0</title>
<ellipse fill="none" stroke="black" cx="62.39" cy="-90" rx="62.29" ry="18"/>
<text text-anchor="middle" x="62.39" y="-86.3" font-family="Times,serif" font-size="14.00">decoder1.0</text>
</g>
<!-- decoder0.0&#45;&gt;decoder1.0 -->
<g id="edge2" class="edge">
<title>decoder0.0&#45;&gt;decoder1.0</title>
<path fill="none" stroke="black" d="M116.57,-144.41C107.55,-135.52 96.28,-124.41 86.36,-114.63"/>
<polygon fill="black" stroke="black" points="88.68,-112 79.1,-107.47 83.76,-116.98 88.68,-112"/>
</g>
<!-- decoder3.0 -->
<g id="node4" class="node">
<title>decoder3.0</title>
<ellipse fill="none" stroke="black" cx="205.39" cy="-90" rx="62.29" ry="18"/>
<text text-anchor="middle" x="205.39" y="-86.3" font-family="Times,serif" font-size="14.00">decoder3.0</text>
</g>
<!-- decoder0.0&#45;&gt;decoder3.0 -->
<g id="edge3" class="edge">
<title>decoder0.0&#45;&gt;decoder3.0</title>
<path fill="none" stroke="black" d="M150.46,-144.41C159.6,-135.52 171.03,-124.41 181.09,-114.63"/>
<polygon fill="black" stroke="black" points="183.72,-116.95 188.45,-107.47 178.84,-111.93 183.72,-116.95"/>
</g>
<!-- decoder5.0 -->
<g id="node5" class="node">
<title>decoder5.0</title>
<ellipse fill="none" stroke="black" cx="62.39" cy="-18" rx="62.29" ry="18"/>
<text text-anchor="middle" x="62.39" y="-14.3" font-family="Times,serif" font-size="14.00">decoder5.0</text>
</g>
<!-- decoder1.0&#45;&gt;decoder5.0 -->
<g id="edge4" class="edge">
<title>decoder1.0&#45;&gt;decoder5.0</title>
<path fill="none" stroke="black" d="M62.39,-71.7C62.39,-63.98 62.39,-54.71 62.39,-46.11"/>
<polygon fill="black" stroke="black" points="65.89,-46.1 62.39,-36.1 58.89,-46.1 65.89,-46.1"/>
</g>
<!-- decoder6.0 -->
<g id="node6" class="node">
<title>decoder6.0</title>
<ellipse fill="none" stroke="black" cx="205.39" cy="-18" rx="62.29" ry="18"/>
<text text-anchor="middle" x="205.39" y="-14.3" font-family="Times,serif" font-size="14.00">decoder6.0</text>
</g>
<!-- decoder3.0&#45;&gt;decoder6.0 -->
<g id="edge5" class="edge">
<title>decoder3.0&#45;&gt;decoder6.0</title>
<path fill="none" stroke="black" d="M205.39,-71.7C205.39,-63.98 205.39,-54.71 205.39,-46.11"/>
<polygon fill="black" stroke="black" points="208.89,-46.1 205.39,-36.1 201.89,-46.1 208.89,-46.1"/>
</g>
</g>
</svg>
