<?xml version="1.0" encoding="UTF-8" standalone="no"?>
<!DOCTYPE svg PUBLIC "-//W3C//DTD SVG 1.1//EN"
 "http://www.w3.org/Graphics/SVG/1.1/DTD/svg11.dtd">
<!-- Generated by graphviz version 2.43.0 (0)
 -->
<!-- Title: foo Pages: 1 -->
<svg width="375pt" height="188pt"
 viewBox="0.00 0.00 375.24 188.00" xmlns="http://www.w3.org/2000/svg" xmlns:xlink="http://www.w3.org/1999/xlink">
<g id="graph0" class="graph" transform="scale(1 1) rotate(0) translate(4 184)">
<title>foo</title>
<polygon fill="white" stroke="transparent" points="-4,4 -4,-184 371.24,-184 371.24,4 -4,4"/>
<!-- root0 -->
<g id="node1" class="node">
<title>root0</title>
<ellipse fill="none" stroke="black" cx="193.84" cy="-162" rx="36" ry="18"/>
<text text-anchor="middle" x="193.84" y="-158.3" font-family="Times,serif" font-size="14.00">root0</text>
</g>
<!-- port1 -->
<g id="node2" class="node">
<title>port1</title>
<ellipse fill="none" stroke="black" cx="57.84" cy="-90" rx="36.29" ry="18"/>
<text text-anchor="middle" x="57.84" y="-86.3" font-family="Times,serif" font-size="14.00">port1</text>
</g>
<!-- root0&#45;&gt;port1 -->
<g id="edge1" class="edge">
<title>root0&#45;&gt;port1</title>
<path fill="none" stroke="black" d="M169.84,-148.65C147.94,-137.37 115.35,-120.6 90.97,-108.05"/>
<polygon fill="black" stroke="black" points="92.56,-104.93 82.06,-103.47 89.35,-111.15 92.56,-104.93"/>
</g>
<!-- port2 -->
<g id="node3" class="node">
<title>port2</title>
<ellipse fill="none" stroke="black" cx="148.84" cy="-90" rx="36.29" ry="18"/>
<text text-anchor="middle" x="148.84" y="-86.3" font-family="Times,serif" font-size="14.00">port2</text>
</g>
<!-- root0&#45;&gt;port2 -->
<g id="edge2" class="edge">
<title>root0&#45;&gt;port2</title>
<path fill="none" stroke="black" d="M183.41,-144.76C177.98,-136.32 171.22,-125.8 165.12,-116.31"/>
<polygon fill="black" stroke="black" points="167.89,-114.15 159.54,-107.63 162,-117.94 167.89,-114.15"/>
</g>
<!-- port3 -->
<g id="node4" class="node">
<title>port3</title>
<ellipse fill="none" stroke="black" cx="239.84" cy="-90" rx="36.29" ry="18"/>
<text text-anchor="middle" x="239.84" y="-86.3" font-family="Times,serif" font-size="14.00">port3</text>
</g>
<!-- root0&#45;&gt;port3 -->
<g id="edge3" class="edge">
<title>root0&#45;&gt;port3</title>
<path fill="none" stroke="black" d="M204.51,-144.76C210.12,-136.23 217.12,-125.58 223.4,-116.02"/>
<polygon fill="black" stroke="black" points="226.35,-117.91 228.91,-107.63 220.5,-114.07 226.35,-117.91"/>
</g>
<!-- port4 -->
<g id="node5" class="node">
<title>port4</title>
<ellipse fill="none" stroke="black" cx="330.84" cy="-90" rx="36.29" ry="18"/>
<text text-anchor="middle" x="330.84" y="-86.3" font-family="Times,serif" font-size="14.00">port4</text>
</g>
<!-- root0&#45;&gt;port4 -->
<g id="edge4" class="edge">
<title>root0&#45;&gt;port4</title>
<path fill="none" stroke="black" d="M218.02,-148.65C240.09,-137.37 272.92,-120.6 297.48,-108.05"/>
<polygon fill="black" stroke="black" points="299.14,-111.13 306.45,-103.47 295.95,-104.9 299.14,-111.13"/>
</g>
<!-- endpoint5 -->
<g id="node6" class="node">
<title>endpoint5</title>
<ellipse fill="none" stroke="black" cx="57.84" cy="-18" rx="57.69" ry="18"/>
<text text-anchor="middle" x="57.84" y="-14.3" font-family="Times,serif" font-size="14.00">endpoint5</text>
</g>
<!-- port1&#45;&gt;endpoint5 -->
<g id="edge5" class="edge">
<title>port1&#45;&gt;endpoint5</title>
<path fill="none" stroke="black" d="M57.84,-71.7C57.84,-63.98 57.84,-54.71 57.84,-46.11"/>
<polygon fill="black" stroke="black" points="61.34,-46.1 57.84,-36.1 54.34,-46.1 61.34,-46.1"/>
</g>
<!-- endpoint6 -->
<g id="node7" class="node">
<title>endpoint6</title>
<ellipse fill="none" stroke="black" cx="239.84" cy="-18" rx="57.69" ry="18"/>
<text text-anchor="middle" x="239.84" y="-14.3" font-family="Times,serif" font-size="14.00">endpoint6</text>
</g>
<!-- port3&#45;&gt;endpoint6 -->
<g id="edge6" class="edge">
<title>port3&#45;&gt;endpoint6</title>
<path fill="none" stroke="black" d="M239.84,-71.7C239.84,-63.98 239.84,-54.71 239.84,-46.11"/>
<polygon fill="black" stroke="black" points="243.34,-46.1 239.84,-36.1 236.34,-46.1 243.34,-46.1"/>
</g>
</g>
</svg>
