<?xml version="1.0" encoding="UTF-8" standalone="no"?>
<!DOCTYPE svg PUBLIC "-//W3C//DTD SVG 1.1//EN"
 "http://www.w3.org/Graphics/SVG/1.1/DTD/svg11.dtd">
<!-- Generated by graphviz version 2.43.0 (0)
 -->
<!-- Title: foo Pages: 1 -->
<svg width="276pt" height="260pt"
 viewBox="0.00 0.00 275.79 260.00" xmlns="http://www.w3.org/2000/svg" xmlns:xlink="http://www.w3.org/1999/xlink">
<g id="graph0" class="graph" transform="scale(1 1) rotate(0) translate(4 256)">
<title>foo</title>
<polygon fill="white" stroke="transparent" points="-4,4 -4,-256 271.79,-256 271.79,4 -4,4"/>
<!-- root0 -->
<g id="node1" class="node">
<title>root0</title>
<ellipse fill="none" stroke="black" cx="133.39" cy="-234" rx="36" ry="18"/>
<text text-anchor="middle" x="133.39" y="-230.3" font-family="Times,serif" font-size="14.00">root0</text>
</g>
<!-- decoder0.0 -->
<g id="node2" class="node">
<title>decoder0.0</title>
<ellipse fill="none" stroke="black" cx="133.39" cy="-162" rx="62.29" ry="18"/>
<text text-anchor="middle" x="133.39" y="-158.3" font-family="Times,serif" font-size="14.00">decoder0.0</text>
</g>
<!-- root0&#45;&gt;decoder0.0 -->
<g id="edge1" class="edge">
<title>root0&#45;&gt;decoder0.0</title>
<path fill="none" stroke="black" d="M133.39,-215.7C133.39,-207.98 133.39,-198.71 133.39,-190.11"/>
<polygon fill="black" stroke="black" points="136.89,-190.1 133.39,-180.1 129.89,-190.1 136.89,-190.1"/>
</g>
<!-- region0 -->
<g id="node3" class="node">
<title>region0</title>
<ellipse fill="none" stroke="black" cx="133.39" cy="-90" rx="46.29" ry="18"/>
<text text-anchor="middle" x="133.39" y="-86.3" font-family="Times,serif" font-size="14.00">region0</text>
</g>
<!-- decoder0.0&#45;&gt;region0 -->
<g id="edge2" class="edge">
<title>decoder0.0&#45;&gt;region0</title>
<path fill="none" stroke="black" d="M133.39,-143.7C133.39,-135.98 133.39,-126.71 133.39,-118.11"/>
<polygon fill="black" stroke="black" points="136.89,-118.1 133.39,-108.1 129.89,-118.1 136.89,-118.1"/>
</g>
<!-- decoder5.0 -->
<g id="node4" class="node">
<title>decoder5.0</title>
<ellipse fill="none" stroke="black" cx="62.39" cy="-18" rx="62.29" ry="18"/>
<text text-anchor="middle" x="62.39" y="-14.3" font-family="Times,serif" font-size="14.00">decoder5.0</text>
</g>
<!-- region0&#45;&gt;decoder5.0 -->
<g id="edge3" class="edge">
<title>region0&#45;&gt;decoder5.0</title>
<path fill="none" stroke="black" d="M117.28,-73.12C108.28,-64.24 96.89,-53.01 86.82,-43.08"/>
<polygon fill="black" stroke="black" points="89.01,-40.33 79.43,-35.8 84.1,-45.31 89.01,-40.33"/>
</g>
<!-- decoder6.0 -->
<g id="node5" class="node">
<title>decoder6.0</title>
<ellipse fill="none" stroke="black" cx="205.39" cy="-18" rx="62.29" ry="18"/>
<text text-anchor="middle" x="205.39" y="-14.3" font-family="Times,serif" font-size="14.00">decoder6.0</text>
</g>
<!-- region0&#45;&gt;decoder6.0 -->
<g id="edge4" class="edge">
<title>region0&#45;&gt;decoder6.0</title>
<path fill="none" stroke="black" d="M149.73,-73.12C159.01,-64.09 170.81,-52.62 181.15,-42.57"/>
<polygon fill="black" stroke="black" points="183.64,-45.03 188.37,-35.55 178.76,-40.01 183.64,-45.03"/>
</g>
</g>
</svg>
