<?xml version="1.0" encoding="UTF-8" standalone="no"?>
<!DOCTYPE svg PUBLIC "-//W3C//DTD SVG 1.1//EN"
 "http://www.w3.org/Graphics/SVG/1.1/DTD/svg11.dtd">
<!-- Generated by graphviz version 2.43.0 (0)
 -->
<!-- Title: foo Pages: 1 -->
<svg width="580pt" height="476pt"
 viewBox="0.00 0.00 579.69 476.00" xmlns="http://www.w3.org/2000/svg" xmlns:xlink="http://www.w3.org/1999/xlink">
<g id="graph0" class="graph" transform="scale(1 1) rotate(0) translate(4 472)">
<title>foo</title>
<polygon fill="white" stroke="transparent" points="-4,4 -4,-472 575.69,-472 575.69,4 -4,4"/>
<!-- root0 -->
<g id="node1" class="node">
<title>root0</title>
<ellipse fill="none" stroke="black" cx="285.84" cy="-450" rx="36" ry="18"/>
<text text-anchor="middle" x="285.84" y="-446.3" font-family="Times,serif" font-size="14.00">root0</text>
</g>
<!-- port1 -->
<g id="node2" class="node">
<title>port1</title>
<ellipse fill="none" stroke="black" cx="168.84" cy="-378" rx="36.29" ry="18"/>
<text text-anchor="middle" x="168.84" y="-374.3" font-family="Times,serif" font-size="14.00">port1</text>
</g>
<!-- root0&#45;&gt;port1 -->
<g id="edge1" class="edge">
<title>root0&#45;&gt;port1</title>
<path fill="none" stroke="black" d="M263.56,-435.67C245.51,-424.87 219.87,-409.53 199.82,-397.53"/>
<polygon fill="black" stroke="black" points="201.42,-394.41 191.04,-392.28 197.83,-400.42 201.42,-394.41"/>
</g>
<!-- port3 -->
<g id="node3" class="node">
<title>port3</title>
<ellipse fill="none" stroke="black" cx="402.84" cy="-378" rx="36.29" ry="18"/>
<text text-anchor="middle" x="402.84" y="-374.3" font-family="Times,serif" font-size="14.00">port3</text>
</g>
<!-- root0&#45;&gt;port3 -->
<g id="edge2" class="edge">
<title>root0&#45;&gt;port3</title>
<path fill="none" stroke="black" d="M308.13,-435.67C326.18,-424.87 351.82,-409.53 371.87,-397.53"/>
<polygon fill="black" stroke="black" points="373.86,-400.42 380.65,-392.28 370.27,-394.41 373.86,-400.42"/>
</g>
<!-- decoder0.0 -->
<g id="node4" class="node">
<title>decoder0.0</title>
<ellipse fill="none" stroke="black" cx="285.84" cy="-378" rx="62.29" ry="18"/>
<text text-anchor="middle" x="285.84" y="-374.3" font-family="Times,serif" font-size="14.00">decoder0.0</text>
</g>
<!-- root0&#45;&gt;decoder0.0 -->
<g id="edge3" class="edge">
<title>root0&#45;&gt;decoder0.0</title>
<path fill="none" stroke="black" d="M285.84,-431.7C285.84,-423.98 285.84,-414.71 285.84,-406.11"/>
<polygon fill="black" stroke="black" points="289.34,-406.1 285.84,-396.1 282.34,-406.1 289.34,-406.1"/>
</g>
<!-- endpoint5 -->
<g id="node5" class="node">
<title>endpoint5</title>
<ellipse fill="none" stroke="black" cx="57.84" cy="-306" rx="57.69" ry="18"/>
<text text-anchor="middle" x="57.84" y="-302.3" font-family="Times,serif" font-size="14.00">endpoint5</text>
</g>
<!-- port1&#45;&gt;endpoint5 -->
<g id="edge4" class="edge">
<title>port1&#45;&gt;endpoint5</title>
<path fill="none" stroke="black" d="M147.18,-363.34C131.24,-353.28 109.28,-339.43 91.12,-327.98"/>
<polygon fill="black" stroke="black" points="92.88,-324.95 82.55,-322.58 89.14,-330.88 92.88,-324.95"/>
</g>
<!-- decoder1.0 -->
<g id="node7" class="node">
<title>decoder1.0</title>
<ellipse fill="none" stroke="black" cx="195.84" cy="-306" rx="62.29" ry="18"/>
<text text-anchor="middle" x="195.84" y="-302.3" font-family="Times,serif" font-size="14.00">decoder1.0</text>
</g>
<!-- port1&#45;&gt;decoder1.0 -->
<g id="edge6" class="edge">
<title>port1&#45;&gt;decoder1.0</title>
<path fill="none" stroke="black" d="M175.38,-360.05C178.42,-352.18 182.11,-342.62 185.51,-333.79"/>
<polygon fill="black" stroke="black" points="188.85,-334.86 189.18,-324.28 182.32,-332.35 188.85,-334.86"/>
</g>
<!-- endpoint6 -->
<g id="node6" class="node">
<title>endpoint6</title>
<ellipse fill="none" stroke="black" cx="513.84" cy="-306" rx="57.69" ry="18"/>
<text text-anchor="middle" x="513.84" y="-302.3" font-family="Times,serif" font-size="14.00">endpoint6</text>
</g>
<!-- port3&#45;&gt;endpoint6 -->
<g id="edge5" class="edge">
<title>port3&#45;&gt;endpoint6</title>
<path fill="none" stroke="black" d="M424.51,-363.34C440.45,-353.28 462.41,-339.43 480.57,-327.98"/>
<polygon fill="black" stroke="black" points="482.55,-330.88 489.14,-322.58 478.81,-324.95 482.55,-330.88"/>
</g>
<!-- decoder3.0 -->
<g id="node8" class="node">
<title>decoder3.0</title>
<ellipse fill="none" stroke="black" cx="375.84" cy="-306" rx="62.29" ry="18"/>
<text text-anchor="middle" x="375.84" y="-302.3" font-family="Times,serif" font-size="14.00">decoder3.0</text>
</g>
<!-- port3&#45;&gt;decoder3.0 -->
<g id="edge7" class="edge">
<title>port3&#45;&gt;decoder3.0</title>
<path fill="none" stroke="black" d="M396.31,-360.05C393.27,-352.18 389.58,-342.62 386.18,-333.79"/>
<polygon fill="black" stroke="black" points="389.37,-332.35 382.51,-324.28 382.84,-334.86 389.37,-332.35"/>
</g>
<!-- decoder0.0&#45;&gt;decoder1.0 -->
<g id="edge11" class="edge">
<title>decoder0.0&#45;&gt;decoder1.0</title>
<path fill="none" stroke="black" d="M264.97,-360.76C253.04,-351.49 237.91,-339.71 224.84,-329.55"/>
<polygon fill="black" stroke="black" points="226.65,-326.52 216.61,-323.15 222.35,-332.05 226.65,-326.52"/>
</g>
<!-- decoder0.0&#45;&gt;decoder3.0 -->
<g id="edge12" class="edge">
<title>decoder0.0&#45;&gt;decoder3.0</title>
<path fill="none" stroke="black" d="M306.72,-360.76C318.65,-351.49 333.78,-339.71 346.85,-329.55"/>
<polygon fill="black" stroke="black" points="349.34,-332.05 355.08,-323.15 345.04,-326.52 349.34,-332.05"/>
</g>
<!-- region0 -->
<g id="node11" class="node">
<title>region0</title>
<ellipse fill="none" stroke="black" cx="285.84" cy="-162" rx="46.29" ry="18"/>
<text text-anchor="middle" x="285.84" y="-158.3" font-family="Times,serif" font-size="14.00">region0</text>
</g>
<!-- decoder0.0&#45;&gt;region0 -->
<g id="edge10" class="edge">
<title>decoder0.0&#45;&gt;region0</title>
<path fill="none" stroke="black" d="M285.84,-359.85C285.84,-322.83 285.84,-235.18 285.84,-190.39"/>
<polygon fill="black" stroke="black" points="289.34,-190.23 285.84,-180.23 282.34,-190.23 289.34,-190.23"/>
</g>
<!-- decoder5.0 -->
<g id="node9" class="node">
<title>decoder5.0</title>
<ellipse fill="none" stroke="black" cx="195.84" cy="-234" rx="62.29" ry="18"/>
<text text-anchor="middle" x="195.84" y="-230.3" font-family="Times,serif" font-size="14.00">decoder5.0</text>
</g>
<!-- endpoint5&#45;&gt;decoder5.0 -->
<g id="edge8" class="edge">
<title>endpoint5&#45;&gt;decoder5.0</title>
<path fill="none" stroke="black" d="M86.77,-290.33C107.24,-279.94 134.91,-265.91 157.26,-254.57"/>
<polygon fill="black" stroke="black" points="159.14,-257.54 166.48,-249.9 155.98,-251.3 159.14,-257.54"/>
</g>
<!-- decoder6.0 -->
<g id="node10" class="node">
<title>decoder6.0</title>
<ellipse fill="none" stroke="black" cx="375.84" cy="-234" rx="62.29" ry="18"/>
<text text-anchor="middle" x="375.84" y="-230.3" font-family="Times,serif" font-size="14.00">decoder6.0</text>
</g>
<!-- endpoint6&#45;&gt;decoder6.0 -->
<g id="edge9" class="edge">
<title>endpoint6&#45;&gt;decoder6.0</title>
<path fill="none" stroke="black" d="M484.92,-290.33C464.45,-279.94 436.77,-265.91 414.43,-254.57"/>
<polygon fill="black" stroke="black" points="415.71,-251.3 405.21,-249.9 412.55,-257.54 415.71,-251.3"/>
</g>
<!-- decoder1.0&#45;&gt;decoder5.0 -->
<g id="edge13" class="edge">
<title>decoder1.0&#45;&gt;decoder5.0</title>
<path fill="none" stroke="black" d="M195.84,-287.7C195.84,-279.98 195.84,-270.71 195.84,-262.11"/>
<polygon fill="black" stroke="black" points="199.34,-262.1 195.84,-252.1 192.34,-262.1 199.34,-262.1"/>
</g>
<!-- decoder3.0&#45;&gt;decoder6.0 -->
<g id="edge14" class="edge">
<title>decoder3.0&#45;&gt;decoder6.0</title>
<path fill="none" stroke="black" d="M375.84,-287.7C375.84,-279.98 375.84,-270.71 375.84,-262.11"/>
<polygon fill="black" stroke="black" points="379.34,-262.1 375.84,-252.1 372.34,-262.1 379.34,-262.1"/>
</g>
<!-- decoder5.0&#45;&gt;region0 -->
<g id="edge15" class="edge">
<title>decoder5.0&#45;&gt;region0</title>
<path fill="none" stroke="black" d="M216.72,-216.76C229.02,-207.2 244.73,-194.98 258.07,-184.61"/>
<polygon fill="black" stroke="black" points="260.27,-187.33 266.01,-178.43 255.97,-181.8 260.27,-187.33"/>
</g>
<!-- decoder6.0&#45;&gt;region0 -->
<g id="edge16" class="edge">
<title>decoder6.0&#45;&gt;region0</title>
<path fill="none" stroke="black" d="M354.97,-216.76C342.67,-207.2 326.96,-194.98 313.62,-184.61"/>
<polygon fill="black" stroke="black" points="315.72,-181.8 305.68,-178.43 311.42,-187.33 315.72,-181.8"/>
</g>
<!-- dax_region0 -->
<g id="node12" class="node">
<title>dax_region0</title>
<ellipse fill="none" stroke="black" cx="285.84" cy="-90" rx="67.69" ry="18"/>
<text text-anchor="middle" x="285.84" y="-86.3" font-family="Times,serif" font-size="14.00">dax_region0</text>
</g>
<!-- region0&#45;&gt;dax_region0 -->
<g id="edge17" class="edge">
<title>region0&#45;&gt;dax_region0</title>
<path fill="none" stroke="black" d="M285.84,-143.7C285.84,-135.98 285.84,-126.71 285.84,-118.11"/>
<polygon fill="black" stroke="black" points="289.34,-118.1 285.84,-108.1 282.34,-118.1 289.34,-118.1"/>
</g>
<!-- dax0.0 -->
<g id="node13" class="node">
<title>dax0.0</title>
<ellipse fill="none" stroke="black" cx="285.84" cy="-18" rx="42.49" ry="18"/>
<text text-anchor="middle" x="285.84" y="-14.3" font-family="Times,serif" font-size="14.00">dax0.0</text>
</g>
<!-- dax_region0&#45;&gt;dax0.0 -->
<g id="edge18" class="edge">
<title>dax_region0&#45;&gt;dax0.0</title>
<path fill="none" stroke="black" d="M285.84,-71.7C285.84,-63.98 285.84,-54.71 285.84,-46.11"/>
<polygon fill="black" stroke="black" points="289.34,-46.1 285.84,-36.1 282.34,-46.1 289.34,-46.1"/>
</g>
</g>
</svg>
