<?xml version="1.0" encoding="UTF-8" standalone="no"?>
<!DOCTYPE svg PUBLIC "-//W3C//DTD SVG 1.1//EN"
 "http://www.w3.org/Graphics/SVG/1.1/DTD/svg11.dtd">
<!-- Generated by graphviz version 2.43.0 (0)
 -->
<!-- Title: board Pages: 1 -->
<svg width="738pt" height="386pt"
 viewBox="0.00 0.00 738.00 386.00" xmlns="http://www.w3.org/2000/svg" xmlns:xlink="http://www.w3.org/1999/xlink">
<g id="graph0" class="graph" transform="scale(1 1) rotate(0) translate(4 382)">
<title>board</title>
<polygon fill="white" stroke="transparent" points="-4,4 -4,-382 734,-382 734,4 -4,4"/>
<!-- n00000001 -->
<g id="node1" class="node">
<title>n00000001</title>
<path fill="green" stroke="black" d="M370.5,-195.5C370.5,-195.5 483.5,-195.5 483.5,-195.5 489.5,-195.5 495.5,-201.5 495.5,-207.5 495.5,-207.5 495.5,-267.5 495.5,-267.5 495.5,-273.5 489.5,-279.5 483.5,-279.5 483.5,-279.5 370.5,-279.5 370.5,-279.5 364.5,-279.5 358.5,-273.5 358.5,-267.5 358.5,-267.5 358.5,-207.5 358.5,-207.5 358.5,-201.5 364.5,-195.5 370.5,-195.5"/>
<text text-anchor="middle" x="427" y="-264.3" font-family="Times,serif" font-size="14.00">0</text>
<polyline fill="none" stroke="black" points="358.5,-256.5 495.5,-256.5 "/>
<text text-anchor="middle" x="427" y="-241.3" font-family="Times,serif" font-size="14.00">csi2</text>
<text text-anchor="middle" x="427" y="-226.3" font-family="Times,serif" font-size="14.00">/dev/v4l&#45;subdev0</text>
<polyline fill="none" stroke="black" points="358.5,-218.5 495.5,-218.5 "/>
<text text-anchor="middle" x="375.5" y="-203.3" font-family="Times,serif" font-size="14.00">1</text>
<polyline fill="none" stroke="black" points="392.5,-195.5 392.5,-218.5 "/>
<text text-anchor="middle" x="409.5" y="-203.3" font-family="Times,serif" font-size="14.00">2</text>
<polyline fill="none" stroke="black" points="426.5,-195.5 426.5,-218.5 "/>
<text text-anchor="middle" x="443.5" y="-203.3" font-family="Times,serif" font-size="14.00">3</text>
<polyline fill="none" stroke="black" points="460.5,-195.5 460.5,-218.5 "/>
<text text-anchor="middle" x="478" y="-203.3" font-family="Times,serif" font-size="14.00">4</text>
</g>
<!-- n00000011 -->
<g id="node2" class="node">
<title>n00000011</title>
<polygon fill="yellow" stroke="black" points="130,-135.5 0,-135.5 0,-97.5 130,-97.5 130,-135.5"/>
<text text-anchor="middle" x="65" y="-120.3" font-family="Times,serif" font-size="14.00">rp1&#45;cfe&#45;csi2&#45;ch0</text>
<text text-anchor="middle" x="65" y="-105.3" font-family="Times,serif" font-size="14.00">/dev/video0</text>
</g>
<!-- n00000001&#45;&gt;n00000011 -->
<g id="edge1" class="edge">
<title>n00000001:port1&#45;&gt;n00000011</title>
<path fill="none" stroke="black" stroke-dasharray="5,2" d="M357,-206.5C257.84,-206.5 231.71,-194.19 139,-159 126.16,-154.13 112.86,-147.3 101.13,-140.58"/>
<polygon fill="black" stroke="black" points="102.9,-137.56 92.51,-135.51 99.35,-143.6 102.9,-137.56"/>
</g>
<!-- n00000007 -->
<g id="node3" class="node">
<title>n00000007</title>
<path fill="green" stroke="black" d="M456.5,-74.5C456.5,-74.5 569.5,-74.5 569.5,-74.5 575.5,-74.5 581.5,-80.5 581.5,-86.5 581.5,-86.5 581.5,-146.5 581.5,-146.5 581.5,-152.5 575.5,-158.5 569.5,-158.5 569.5,-158.5 456.5,-158.5 456.5,-158.5 450.5,-158.5 444.5,-152.5 444.5,-146.5 444.5,-146.5 444.5,-86.5 444.5,-86.5 444.5,-80.5 450.5,-74.5 456.5,-74.5"/>
<text text-anchor="middle" x="478.5" y="-143.3" font-family="Times,serif" font-size="14.00">0</text>
<polyline fill="none" stroke="black" points="512.5,-135.5 512.5,-158.5 "/>
<text text-anchor="middle" x="547" y="-143.3" font-family="Times,serif" font-size="14.00">1</text>
<polyline fill="none" stroke="black" points="444.5,-135.5 581.5,-135.5 "/>
<text text-anchor="middle" x="513" y="-120.3" font-family="Times,serif" font-size="14.00">pisp&#45;fe</text>
<text text-anchor="middle" x="513" y="-105.3" font-family="Times,serif" font-size="14.00">/dev/v4l&#45;subdev1</text>
<polyline fill="none" stroke="black" points="444.5,-97.5 581.5,-97.5 "/>
<text text-anchor="middle" x="467" y="-82.3" font-family="Times,serif" font-size="14.00">2</text>
<polyline fill="none" stroke="black" points="489.5,-74.5 489.5,-97.5 "/>
<text text-anchor="middle" x="512.5" y="-82.3" font-family="Times,serif" font-size="14.00">3</text>
<polyline fill="none" stroke="black" points="535.5,-74.5 535.5,-97.5 "/>
<text text-anchor="middle" x="558.5" y="-82.3" font-family="Times,serif" font-size="14.00">4</text>
</g>
<!-- n00000001&#45;&gt;n00000007 -->
<g id="edge2" class="edge">
<title>n00000001:port1&#45;&gt;n00000007:port0</title>
<path fill="none" stroke="black" d="M375,-195C375,-163.9 412.28,-180.24 435,-159 435.99,-158.07 436.64,-157 437.1,-155.89"/>
<polygon fill="black" stroke="black" points="440.11,-157.69 443,-147.5 434.39,-153.67 440.11,-157.69"/>
</g>
<!-- n00000001&#45;&gt;n00000007 -->
<g id="edge4" class="edge">
<title>n00000001:port2&#45;&gt;n00000007:port0</title>
<path fill="none" stroke="black" stroke-dasharray="5,2" d="M409,-195C409,-175.26 423.59,-175.1 435,-159 435.79,-157.89 436.32,-156.71 436.72,-155.56"/>
<polygon fill="black" stroke="black" points="439.62,-157.54 443,-147.5 434.09,-153.24 439.62,-157.54"/>
</g>
<!-- n00000001&#45;&gt;n00000007 -->
<g id="edge6" class="edge">
<title>n00000001:port3&#45;&gt;n00000007:port0</title>
<path fill="none" stroke="black" stroke-dasharray="5,2" d="M444,-195C444,-187.82 438.66,-168.46 438.56,-156.79"/>
<polygon fill="black" stroke="black" points="441.84,-158.03 443,-147.5 435.53,-155.01 441.84,-158.03"/>
</g>
<!-- n00000001&#45;&gt;n00000007 -->
<g id="edge8" class="edge">
<title>n00000001:port4&#45;&gt;n00000007:port0</title>
<path fill="none" stroke="black" stroke-dasharray="5,2" d="M478,-195C478,-172.99 453.01,-179.08 444,-159 443.8,-158.56 443.59,-158.1 443.37,-157.63"/>
<polygon fill="black" stroke="black" points="446.86,-157.37 443,-147.5 439.86,-157.62 446.86,-157.37"/>
</g>
<!-- n00000015 -->
<g id="node4" class="node">
<title>n00000015</title>
<polygon fill="yellow" stroke="black" points="278,-135.5 148,-135.5 148,-97.5 278,-97.5 278,-135.5"/>
<text text-anchor="middle" x="213" y="-120.3" font-family="Times,serif" font-size="14.00">rp1&#45;cfe&#45;csi2&#45;ch1</text>
<text text-anchor="middle" x="213" y="-105.3" font-family="Times,serif" font-size="14.00">/dev/video1</text>
</g>
<!-- n00000001&#45;&gt;n00000015 -->
<g id="edge3" class="edge">
<title>n00000001:port2&#45;&gt;n00000015</title>
<path fill="none" stroke="black" d="M409,-195C409,-138.47 339.09,-180.96 287,-159 274.79,-153.85 262.03,-147.2 250.6,-140.73"/>
<polygon fill="black" stroke="black" points="252.17,-137.6 241.76,-135.62 248.67,-143.66 252.17,-137.6"/>
</g>
<!-- n00000019 -->
<g id="node5" class="node">
<title>n00000019</title>
<polygon fill="yellow" stroke="black" points="426,-135.5 296,-135.5 296,-97.5 426,-97.5 426,-135.5"/>
<text text-anchor="middle" x="361" y="-120.3" font-family="Times,serif" font-size="14.00">rp1&#45;cfe&#45;csi2&#45;ch2</text>
<text text-anchor="middle" x="361" y="-105.3" font-family="Times,serif" font-size="14.00">/dev/video2</text>
</g>
<!-- n00000001&#45;&gt;n00000019 -->
<g id="edge5" class="edge">
<title>n00000001:port3&#45;&gt;n00000019</title>
<path fill="none" stroke="black" stroke-dasharray="5,2" d="M444,-195C444,-172.09 426.9,-154.01 408.22,-141.1"/>
<polygon fill="black" stroke="black" points="409.89,-138.01 399.58,-135.53 406.09,-143.89 409.89,-138.01"/>
</g>
<!-- n0000001d -->
<g id="node6" class="node">
<title>n0000001d</title>
<polygon fill="yellow" stroke="black" points="730,-135.5 600,-135.5 600,-97.5 730,-97.5 730,-135.5"/>
<text text-anchor="middle" x="665" y="-120.3" font-family="Times,serif" font-size="14.00">rp1&#45;cfe&#45;csi2&#45;ch3</text>
<text text-anchor="middle" x="665" y="-105.3" font-family="Times,serif" font-size="14.00">/dev/video3</text>
</g>
<!-- n00000001&#45;&gt;n0000001d -->
<g id="edge7" class="edge">
<title>n00000001:port4&#45;&gt;n0000001d</title>
<path fill="none" stroke="black" stroke-dasharray="5,2" d="M497,-206.5C503.23,-206.5 500.16,-198.91 505,-195 537.23,-168.95 553.76,-177.16 591,-159 602.38,-153.45 614.45,-146.95 625.48,-140.76"/>
<polygon fill="black" stroke="black" points="627.49,-143.65 634.46,-135.67 624.03,-137.56 627.49,-143.65"/>
</g>
<!-- n00000021 -->
<g id="node7" class="node">
<title>n00000021</title>
<polygon fill="yellow" stroke="black" points="423,-38 281,-38 281,0 423,0 423,-38"/>
<text text-anchor="middle" x="352" y="-22.8" font-family="Times,serif" font-size="14.00">rp1&#45;cfe&#45;fe&#45;image0</text>
<text text-anchor="middle" x="352" y="-7.8" font-family="Times,serif" font-size="14.00">/dev/video4</text>
</g>
<!-- n00000007&#45;&gt;n00000021 -->
<g id="edge9" class="edge">
<title>n00000007:port2&#45;&gt;n00000021</title>
<path fill="none" stroke="black" d="M443,-85.5C436.77,-85.5 439.47,-78.33 435,-74 423.15,-62.52 408.52,-52.05 394.86,-43.46"/>
<polygon fill="black" stroke="black" points="396.42,-40.31 386.06,-38.09 392.78,-46.29 396.42,-40.31"/>
</g>
<!-- n00000025 -->
<g id="node8" class="node">
<title>n00000025</title>
<polygon fill="yellow" stroke="black" points="583,-38 441,-38 441,0 583,0 583,-38"/>
<text text-anchor="middle" x="512" y="-22.8" font-family="Times,serif" font-size="14.00">rp1&#45;cfe&#45;fe&#45;image1</text>
<text text-anchor="middle" x="512" y="-7.8" font-family="Times,serif" font-size="14.00">/dev/video5</text>
</g>
<!-- n00000007&#45;&gt;n00000025 -->
<g id="edge10" class="edge">
<title>n00000007:port3&#45;&gt;n00000025</title>
<path fill="none" stroke="black" stroke-dasharray="5,2" d="M512,-74C512,-65.79 512,-56.87 512,-48.69"/>
<polygon fill="black" stroke="black" points="515.5,-48.49 512,-38.49 508.5,-48.49 515.5,-48.49"/>
</g>
<!-- n00000029 -->
<g id="node9" class="node">
<title>n00000029</title>
<polygon fill="yellow" stroke="black" points="726.5,-38 601.5,-38 601.5,0 726.5,0 726.5,-38"/>
<text text-anchor="middle" x="664" y="-22.8" font-family="Times,serif" font-size="14.00">rp1&#45;cfe&#45;fe&#45;stats</text>
<text text-anchor="middle" x="664" y="-7.8" font-family="Times,serif" font-size="14.00">/dev/video6</text>
</g>
<!-- n00000007&#45;&gt;n00000029 -->
<g id="edge11" class="edge">
<title>n00000007:port4&#45;&gt;n00000029</title>
<path fill="none" stroke="black" d="M583,-85.5C589.23,-85.5 586.66,-78.47 591,-74 601.71,-62.97 614.85,-52.51 627.02,-43.79"/>
<polygon fill="black" stroke="black" points="629.05,-46.64 635.24,-38.04 625.04,-40.9 629.05,-46.64"/>
</g>
<!-- n0000000d -->
<g id="node10" class="node">
<title>n0000000d</title>
<path fill="green" stroke="black" d="M370.5,-316.5C370.5,-316.5 483.5,-316.5 483.5,-316.5 489.5,-316.5 495.5,-322.5 495.5,-328.5 495.5,-328.5 495.5,-365.5 495.5,-365.5 495.5,-371.5 489.5,-377.5 483.5,-377.5 483.5,-377.5 370.5,-377.5 370.5,-377.5 364.5,-377.5 358.5,-371.5 358.5,-365.5 358.5,-365.5 358.5,-328.5 358.5,-328.5 358.5,-322.5 364.5,-316.5 370.5,-316.5"/>
<text text-anchor="middle" x="427" y="-362.3" font-family="Times,serif" font-size="14.00">imx219 6&#45;0010</text>
<text text-anchor="middle" x="427" y="-347.3" font-family="Times,serif" font-size="14.00">/dev/v4l&#45;subdev2</text>
<polyline fill="none" stroke="black" points="358.5,-339.5 495.5,-339.5 "/>
<text text-anchor="middle" x="427" y="-324.3" font-family="Times,serif" font-size="14.00">0</text>
</g>
<!-- n0000000d&#45;&gt;n00000001 -->
<g id="edge12" class="edge">
<title>n0000000d:port0&#45;&gt;n00000001:port0</title>
<path fill="none" stroke="black" stroke-width="2" d="M427,-316C427,-304 427,-298.75 427,-290.12"/>
<polygon fill="black" stroke="black" stroke-width="2" points="430.5,-290 427,-280 423.5,-290 430.5,-290"/>
</g>
<!-- n0000002d -->
<g id="node11" class="node">
<title>n0000002d</title>
<polygon fill="yellow" stroke="black" points="646,-256.5 514,-256.5 514,-218.5 646,-218.5 646,-256.5"/>
<text text-anchor="middle" x="580" y="-241.3" font-family="Times,serif" font-size="14.00">rp1&#45;cfe&#45;fe&#45;config</text>
<text text-anchor="middle" x="580" y="-226.3" font-family="Times,serif" font-size="14.00">/dev/video7</text>
</g>
<!-- n0000002d&#45;&gt;n00000007 -->
<g id="edge13" class="edge">
<title>n0000002d&#45;&gt;n00000007:port1</title>
<path fill="none" stroke="black" d="M567.34,-218.31C559.48,-205.53 550.4,-187.5 547.76,-169.18"/>
<polygon fill="black" stroke="black" points="551.23,-168.71 547,-159 544.25,-169.23 551.23,-168.71"/>
</g>
</g>
</svg>
