<?xml version="1.0" encoding="UTF-8" standalone="no"?>
<!DOCTYPE svg PUBLIC "-//W3C//DTD SVG 1.1//EN"
 "http://www.w3.org/Graphics/SVG/1.1/DTD/svg11.dtd">
<!-- Generated by graphviz version 2.43.0 (0)
 -->
<!-- Title: board Pages: 1 -->
<svg width="366pt" height="394pt"
 viewBox="0.00 0.00 366.00 394.00" xmlns="http://www.w3.org/2000/svg" xmlns:xlink="http://www.w3.org/1999/xlink">
<g id="graph0" class="graph" transform="scale(1 1) rotate(0) translate(4 390)">
<title>board</title>
<polygon fill="white" stroke="transparent" points="-4,4 -4,-390 362,-390 362,4 -4,4"/>
<!-- n00000001 -->
<g id="node1" class="node">
<title>n00000001</title>
<path fill="green" stroke="black" d="M12,-74.5C12,-74.5 125,-74.5 125,-74.5 131,-74.5 137,-80.5 137,-86.5 137,-86.5 137,-146.5 137,-146.5 137,-152.5 131,-158.5 125,-158.5 125,-158.5 12,-158.5 12,-158.5 6,-158.5 0,-152.5 0,-146.5 0,-146.5 0,-86.5 0,-86.5 0,-80.5 6,-74.5 12,-74.5"/>
<text text-anchor="middle" x="68.5" y="-143.3" font-family="Times,serif" font-size="14.00">0</text>
<polyline fill="none" stroke="black" points="0,-135.5 137,-135.5 "/>
<text text-anchor="middle" x="68.5" y="-120.3" font-family="Times,serif" font-size="14.00">stf_isp</text>
<text text-anchor="middle" x="68.5" y="-105.3" font-family="Times,serif" font-size="14.00">/dev/v4l&#45;subdev0</text>
<polyline fill="none" stroke="black" points="0,-97.5 137,-97.5 "/>
<text text-anchor="middle" x="68.5" y="-82.3" font-family="Times,serif" font-size="14.00">1</text>
</g>
<!-- n00000008 -->
<g id="node2" class="node">
<title>n00000008</title>
<polygon fill="yellow" stroke="black" points="120.5,-38 16.5,-38 16.5,0 120.5,0 120.5,-38"/>
<text text-anchor="middle" x="68.5" y="-22.8" font-family="Times,serif" font-size="14.00">capture_yuv</text>
<text text-anchor="middle" x="68.5" y="-7.8" font-family="Times,serif" font-size="14.00">/dev/video1</text>
</g>
<!-- n00000001&#45;&gt;n00000008 -->
<g id="edge1" class="edge">
<title>n00000001:port1&#45;&gt;n00000008</title>
<path fill="none" stroke="black" stroke-dasharray="5,2" d="M68.5,-74C68.5,-65.79 68.5,-56.87 68.5,-48.69"/>
<polygon fill="black" stroke="black" points="72,-48.49 68.5,-38.49 65,-48.49 72,-48.49"/>
</g>
<!-- n00000004 -->
<g id="node3" class="node">
<title>n00000004</title>
<polygon fill="yellow" stroke="black" points="260,-135.5 155,-135.5 155,-97.5 260,-97.5 260,-135.5"/>
<text text-anchor="middle" x="207.5" y="-120.3" font-family="Times,serif" font-size="14.00">capture_raw</text>
<text text-anchor="middle" x="207.5" y="-105.3" font-family="Times,serif" font-size="14.00">/dev/video0</text>
</g>
<!-- n0000000e -->
<g id="node4" class="node">
<title>n0000000e</title>
<path fill="green" stroke="black" d="M119,-195.5C119,-195.5 346,-195.5 346,-195.5 352,-195.5 358,-201.5 358,-207.5 358,-207.5 358,-252.5 358,-252.5 358,-258.5 352,-264.5 346,-264.5 346,-264.5 119,-264.5 119,-264.5 113,-264.5 107,-258.5 107,-252.5 107,-252.5 107,-207.5 107,-207.5 107,-201.5 113,-195.5 119,-195.5"/>
<text text-anchor="middle" x="232.5" y="-249.3" font-family="Times,serif" font-size="14.00">0</text>
<polyline fill="none" stroke="black" points="107,-241.5 358,-241.5 "/>
<text text-anchor="middle" x="232.5" y="-226.3" font-family="Times,serif" font-size="14.00">cdns_csi2rx.19800000.csi&#45;bridge</text>
<polyline fill="none" stroke="black" points="107,-218.5 358,-218.5 "/>
<text text-anchor="middle" x="138" y="-203.3" font-family="Times,serif" font-size="14.00">1</text>
<polyline fill="none" stroke="black" points="169,-195.5 169,-218.5 "/>
<text text-anchor="middle" x="200.5" y="-203.3" font-family="Times,serif" font-size="14.00">2</text>
<polyline fill="none" stroke="black" points="232,-195.5 232,-218.5 "/>
<text text-anchor="middle" x="263.5" y="-203.3" font-family="Times,serif" font-size="14.00">3</text>
<polyline fill="none" stroke="black" points="295,-195.5 295,-218.5 "/>
<text text-anchor="middle" x="326.5" y="-203.3" font-family="Times,serif" font-size="14.00">4</text>
</g>
<!-- n0000000e&#45;&gt;n00000001 -->
<g id="edge2" class="edge">
<title>n0000000e:port1&#45;&gt;n00000001:port0</title>
<path fill="none" stroke="black" stroke-dasharray="5,2" d="M105.5,-207C82.94,-207 129.25,-173.88 141.66,-157.06"/>
<polygon fill="black" stroke="black" points="144.96,-155.9 138.5,-147.5 138.31,-158.09 144.96,-155.9"/>
</g>
<!-- n0000000e&#45;&gt;n00000004 -->
<g id="edge3" class="edge">
<title>n0000000e:port1&#45;&gt;n00000004</title>
<path fill="none" stroke="black" stroke-dasharray="5,2" d="M137.5,-195C137.5,-173.5 152.52,-155.29 168.65,-141.93"/>
<polygon fill="black" stroke="black" points="170.83,-144.66 176.59,-135.77 166.55,-139.13 170.83,-144.66"/>
</g>
<!-- n00000018 -->
<g id="node5" class="node">
<title>n00000018</title>
<path fill="green" stroke="black" d="M176,-301.5C176,-301.5 289,-301.5 289,-301.5 295,-301.5 301,-307.5 301,-313.5 301,-313.5 301,-373.5 301,-373.5 301,-379.5 295,-385.5 289,-385.5 289,-385.5 176,-385.5 176,-385.5 170,-385.5 164,-379.5 164,-373.5 164,-373.5 164,-313.5 164,-313.5 164,-307.5 170,-301.5 176,-301.5"/>
<text text-anchor="middle" x="232.5" y="-370.3" font-family="Times,serif" font-size="14.00"> </text>
<polyline fill="none" stroke="black" points="164,-362.5 301,-362.5 "/>
<text text-anchor="middle" x="232.5" y="-347.3" font-family="Times,serif" font-size="14.00">imx219 6&#45;0010</text>
<text text-anchor="middle" x="232.5" y="-332.3" font-family="Times,serif" font-size="14.00">/dev/v4l&#45;subdev1</text>
<polyline fill="none" stroke="black" points="164,-324.5 301,-324.5 "/>
<text text-anchor="middle" x="232.5" y="-309.3" font-family="Times,serif" font-size="14.00">0</text>
</g>
<!-- n00000018&#45;&gt;n0000000e -->
<g id="edge4" class="edge">
<title>n00000018:port0&#45;&gt;n0000000e:port0</title>
<path fill="none" stroke="black" stroke-width="2" d="M232.5,-301C232.5,-289 232.5,-283.75 232.5,-275.12"/>
<polygon fill="black" stroke="black" stroke-width="2" points="236,-275 232.5,-265 229,-275 236,-275"/>
</g>
</g>
</svg>
